<svg xmlns="http://www.w3.org/2000/svg" xmlns:xlink="http://www.w3.org/1999/xlink" width="500" zoomAndPan="magnify" viewBox="0 0 375 374.999991" height="500" preserveAspectRatio="xMidYMid meet" version="1.0"><defs><g/><clipPath id="f80630f455"><path d="M 56.445312 54 L 157 54 L 157 174.351562 L 56.445312 174.351562 Z M 56.445312 54 " clip-rule="nonzero"/></clipPath><clipPath id="cc8c4e116c"><path d="M 56.445312 53.601562 L 157.636719 53.601562 L 157.636719 174.351562 L 56.445312 174.351562 Z M 56.445312 53.601562 " clip-rule="nonzero"/></clipPath></defs><g fill="#242254" fill-opacity="1"><g transform="translate(115.282123, 238.188743)"><g><path d="M 102.75 -76.9375 L 96.484375 -76.9375 L 96.484375 -20.546875 L 102.75 -20.546875 L 102.75 0 L 55.390625 0 L 55.390625 -20.546875 L 61.40625 -20.546875 L 61.40625 -41.234375 L 43.859375 -41.234375 L 43.859375 -20.546875 L 49.875 -20.546875 L 49.875 0 L 2.5 0 L 2.5 -20.546875 L 8.765625 -20.546875 L 8.765625 -76.9375 L 2.5 -76.9375 L 2.5 -97.5 L 49.875 -97.5 L 49.875 -76.9375 L 43.859375 -76.9375 L 43.859375 -57.890625 L 61.40625 -57.890625 L 61.40625 -76.9375 L 55.390625 -76.9375 L 55.390625 -97.5 L 102.75 -97.5 Z M 102.75 -76.9375 "/></g></g></g><g clip-path="url(#f80630f455)"><path fill="#fdcf60" d="M 149.9375 154.117188 C 149.097656 153.417969 147.832031 152.433594 146.148438 152.574219 C 144.464844 152.714844 140.675781 152.996094 139.273438 152.714844 C 137.871094 152.433594 136.75 152.855469 136.328125 151.734375 C 135.90625 150.609375 135.765625 146.960938 134.644531 145.558594 C 133.519531 144.15625 130.433594 142.613281 130.011719 141.210938 C 129.59375 139.808594 129.453125 139.246094 130.011719 137.84375 C 130.574219 136.441406 131.835938 135.175781 133.660156 134.335938 C 135.484375 133.492188 137.167969 132.929688 137.167969 132.929688 C 137.167969 132.929688 140.816406 136.300781 140.957031 137.140625 C 141.097656 137.984375 140.675781 138.824219 141.519531 139.246094 C 142.359375 139.667969 143.765625 138.402344 144.042969 136.160156 C 144.324219 133.914062 143.34375 131.246094 143.484375 129.703125 C 143.625 128.160156 144.605469 126.757812 143.765625 125.214844 C 142.921875 123.671875 140.957031 121.285156 139.414062 120.164062 C 137.871094 119.039062 135.203125 118.898438 134.785156 117.496094 C 134.363281 116.09375 137.449219 110.761719 137.449219 109.5 C 137.449219 108.234375 137.027344 105.851562 138.011719 103.886719 C 138.992188 101.921875 140.117188 97.710938 144.324219 95.046875 C 148.535156 92.378906 151.480469 91.257812 152.183594 89.292969 C 152.886719 87.328125 152.324219 87.328125 151.480469 86.769531 C 150.640625 86.207031 153.726562 82.980469 154.707031 79.890625 C 155.691406 76.804688 157.375 70.632812 156.671875 70.070312 C 155.972656 69.507812 153.867188 70.070312 153.445312 71.191406 C 153.023438 72.316406 151.339844 79.191406 151.339844 79.191406 C 151.339844 79.191406 151.761719 74 151.0625 72.457031 C 150.359375 70.914062 149.515625 69.367188 148.675781 69.789062 C 147.832031 70.210938 148.253906 79.332031 148.253906 79.332031 C 148.253906 79.332031 147.414062 77.226562 146.851562 75.964844 C 146.289062 74.699219 145.867188 73.578125 145.167969 74.28125 C 144.464844 74.980469 145.027344 81.714844 145.027344 81.714844 C 145.027344 81.714844 143.90625 80.03125 143.0625 79.613281 C 142.222656 79.191406 141.800781 78.910156 141.238281 79.890625 C 140.675781 80.875 140.816406 82.136719 140.816406 82.136719 C 140.816406 82.136719 140.398438 80.734375 139.414062 80.734375 C 138.433594 80.734375 137.167969 81.15625 137.589844 82.277344 C 138.011719 83.398438 133.800781 82.417969 134.082031 84.382812 C 134.363281 86.347656 134.082031 88.171875 132.960938 88.171875 C 131.835938 88.171875 131.136719 89.714844 128.890625 89.152344 C 127.488281 89.996094 129.59375 95.1875 128.609375 94.484375 C 127.628906 93.785156 125.382812 93.222656 124.539062 94.765625 C 123.699219 96.308594 125.664062 98.132812 124.539062 99.535156 C 123.417969 100.941406 124.539062 102.203125 122.855469 103.324219 C 121.171875 104.449219 121.03125 103.605469 120.613281 106.132812 C 120.191406 108.65625 120.191406 109.78125 119.488281 110.761719 C 118.789062 111.742188 117.945312 112.445312 118.085938 114.550781 C 118.226562 116.65625 119.488281 118.621094 117.804688 118.339844 C 116.121094 118.058594 115.421875 116.375 114.15625 115.671875 C 112.894531 114.972656 112.613281 114.832031 110.929688 113.566406 C 109.246094 112.304688 108.964844 110.621094 107.984375 110.199219 C 107 109.78125 106.160156 109.917969 104.757812 109.359375 C 103.351562 108.796875 101.949219 107.535156 101.25 106.972656 C 100.546875 106.410156 100.546875 106.132812 99.285156 105.007812 C 98.019531 103.886719 96.757812 103.183594 95.917969 101.359375 C 95.074219 99.535156 95.214844 99.394531 94.234375 96.730469 C 93.25 94.0625 93.53125 93.222656 92.96875 92.097656 C 92.410156 90.976562 92.410156 89.996094 91.425781 89.011719 C 90.445312 88.03125 89.601562 86.90625 89.460938 87.890625 C 89.320312 88.871094 89.320312 90.273438 89.320312 91.117188 C 89.320312 91.957031 88.058594 89.855469 86.9375 87.75 C 85.8125 85.644531 86.375 85.363281 85.953125 83.539062 C 85.53125 81.714844 85.953125 80.453125 85.8125 78.347656 C 85.671875 76.242188 85.394531 76.101562 85.253906 73.015625 C 85.113281 69.929688 84.863281 69.410156 84.863281 67.164062 C 84.863281 64.921875 84.945312 64.011719 84.972656 62.351562 C 84.484375 61.078125 83.9375 60.6875 83.570312 60.808594 C 83.113281 60.929688 82.5 60.9375 82.132812 62.632812 C 81.855469 64.457031 81.601562 65.816406 81.324219 69.226562 C 81.605469 72.59375 81.746094 75.542969 81.183594 76.382812 C 80.621094 77.226562 80.199219 77.085938 79.78125 76.101562 C 79.359375 75.121094 79.359375 74.699219 78.796875 73.015625 C 78.238281 71.332031 78.273438 70.230469 77.984375 67.878906 C 78.125 64.371094 77.957031 62.773438 77.816406 60.105469 C 77.675781 57.441406 77.832031 57.363281 77.535156 55.757812 C 77.28125 54.238281 76.925781 53.875 75.710938 54.074219 C 75.007812 54.914062 74.871094 57.019531 74.589844 58.84375 C 74.308594 60.667969 74.308594 60.527344 74.167969 63.894531 C 74.027344 67.261719 74.148438 68.605469 74.429688 69.730469 C 74.496094 70.980469 74.746094 72.222656 74.589844 72.734375 C 73.746094 72.175781 73.746094 71.191406 72.90625 69.226562 C 72.0625 67.261719 71.359375 65.578125 71.082031 63.332031 C 70.800781 61.089844 70.050781 60.265625 69.570312 57.796875 C 68.449219 55.410156 68.203125 54.832031 67.433594 54.773438 C 66.617188 55.359375 66.230469 55.886719 66.308594 57.722656 C 66.730469 59.6875 66.730469 60.667969 67.433594 62.632812 C 68.132812 64.597656 67.992188 65.4375 68.976562 67.542969 C 69.570312 69.390625 69.644531 70.019531 69.957031 70.628906 C 68.554688 70.769531 68.574219 70.214844 67.714844 69.226562 C 66.292969 66.527344 66.832031 67.09375 66.308594 66.28125 C 65.53125 64.652344 64.863281 64.050781 64.207031 64.316406 C 63.503906 65.4375 63.222656 65.71875 63.785156 66.980469 C 64.34375 68.246094 63.925781 67.402344 64.765625 69.226562 C 65.609375 71.050781 66.449219 71.753906 65.328125 71.613281 C 64.207031 71.472656 64.066406 71.613281 63.363281 70.488281 C 62.660156 69.367188 63.363281 69.226562 61.820312 68.527344 C 60.277344 67.824219 59.292969 66.5625 58.875 67.542969 C 58.453125 68.527344 58.3125 68.386719 59.292969 69.789062 C 60.277344 71.191406 61.257812 71.613281 60.835938 72.3125 C 60.417969 73.015625 59.292969 73.15625 58.453125 73.15625 C 57.609375 73.15625 57.46875 73.296875 57.890625 74.699219 C 58.3125 76.101562 58.453125 76.101562 58.59375 76.804688 C 58.734375 77.503906 58.03125 78.066406 58.03125 78.066406 C 58.03125 78.066406 56.769531 77.226562 57.75 79.328125 C 58.734375 81.433594 59.292969 80.875 59.855469 81.855469 C 60.417969 82.835938 60.976562 83.820312 60.136719 83.820312 C 59.292969 83.820312 58.453125 83.679688 58.59375 84.382812 C 58.734375 85.082031 59.996094 85.785156 59.292969 86.207031 C 58.59375 86.625 58.03125 86.066406 57.46875 86.625 C 56.910156 87.1875 57.46875 88.167969 57.46875 88.871094 C 57.46875 89.574219 57.609375 90.132812 57.328125 90.835938 C 57.050781 91.539062 56.488281 92.238281 56.910156 92.941406 C 57.328125 93.640625 56.769531 93.78125 57.890625 94.484375 C 59.011719 95.183594 59.714844 95.046875 59.714844 95.746094 C 59.714844 96.449219 59.855469 96.308594 59.152344 96.871094 C 58.453125 97.429688 57.609375 97.007812 58.171875 98.273438 C 58.734375 99.535156 58.59375 99.394531 58.875 100.515625 C 59.152344 101.640625 58.734375 101.078125 59.996094 103.746094 C 61.257812 106.410156 62.519531 108.375 63.785156 109.078125 C 65.046875 109.777344 64.765625 111.320312 63.925781 111.601562 C 63.082031 111.882812 62.941406 113.144531 63.785156 114.96875 C 64.625 116.792969 65.609375 119.179688 65.890625 120.441406 C 66.167969 121.703125 66.449219 121.84375 67.851562 123.390625 C 69.257812 124.933594 70.378906 126.335938 71.640625 126.757812 C 72.90625 127.175781 73.046875 128.582031 73.886719 129.28125 C 74.730469 129.984375 75.007812 130.40625 76.832031 130.40625 C 78.65625 130.40625 78.65625 129.984375 80.480469 130.546875 C 82.304688 131.105469 83.148438 131.667969 83.289062 132.507812 C 83.429688 133.351562 83.988281 133.773438 85.113281 133.492188 C 86.234375 133.210938 85.394531 134.054688 86.796875 134.613281 C 88.199219 135.175781 87.777344 135.878906 89.460938 135.738281 C 91.144531 135.597656 91.988281 134.332031 92.410156 135.738281 C 92.828125 137.140625 92.96875 138.261719 94.792969 137 C 96.617188 135.738281 97.601562 132.367188 98.582031 135.878906 C 99.566406 139.386719 99.566406 140.226562 98.441406 141.210938 C 97.320312 142.191406 97.039062 143.035156 94.511719 144.015625 C 91.988281 144.996094 91.988281 146.121094 90.164062 146.820312 C 88.339844 147.523438 88.199219 147.804688 85.394531 149.207031 C 82.585938 150.609375 81.886719 151.03125 80.199219 152.011719 C 78.515625 152.996094 78.097656 153.976562 77.675781 154.960938 C 77.253906 155.941406 75.429688 157.066406 76.132812 158.46875 C 76.832031 159.871094 78.238281 159.027344 78.238281 159.730469 C 78.238281 160.433594 77.957031 160.992188 78.515625 162.398438 C 79.078125 163.800781 78.9375 164.359375 80.902344 164.921875 C 82.867188 165.484375 83.988281 165.765625 84.972656 165.34375 C 85.953125 164.921875 86.234375 166.605469 87.21875 166.183594 C 88.199219 165.765625 88.621094 164.5 89.320312 165.203125 C 90.023438 165.90625 88.761719 166.324219 90.445312 166.746094 C 92.128906 167.167969 92.269531 166.046875 92.410156 167.027344 C 92.550781 168.007812 91.988281 168.992188 93.8125 168.007812 C 95.636719 167.027344 95.074219 165.0625 96.476562 166.464844 C 97.878906 167.871094 97.179688 169.554688 99.703125 168.148438 C 102.230469 166.746094 101.386719 166.605469 103.351562 166.746094 C 105.316406 166.886719 105.316406 167.027344 106.019531 165.484375 C 106.722656 163.941406 105.316406 164.359375 108.40625 164.222656 C 111.492188 164.082031 109.949219 166.046875 111.914062 163.378906 C 113.878906 160.714844 114.296875 158.046875 115.140625 160.992188 C 115.980469 163.941406 115.140625 164.640625 116.402344 165.484375 C 117.664062 166.324219 124.121094 166.046875 124.121094 166.046875 C 124.121094 166.046875 124.261719 169.273438 124.820312 169.832031 C 125.382812 170.394531 126.785156 169.273438 128.046875 170.394531 C 129.3125 171.515625 128.46875 172.21875 129.59375 173.199219 C 130.714844 174.183594 132.960938 174.324219 132.960938 174.324219 C 132.960938 174.324219 131.417969 173.0625 130.996094 171.9375 C 130.574219 170.816406 130.011719 168.851562 130.011719 168.851562 C 130.011719 168.851562 132.257812 169.691406 133.238281 169.832031 C 134.222656 169.972656 135.765625 169.691406 135.765625 169.691406 L 135.34375 172.921875 C 135.34375 172.921875 138.011719 172.921875 138.011719 171.796875 C 138.011719 170.675781 137.167969 167.589844 136.46875 167.167969 C 135.765625 166.746094 134.785156 166.886719 134.785156 166.886719 C 134.785156 166.886719 135.0625 165.484375 134.363281 165.203125 C 133.660156 164.921875 133.238281 165.203125 132.117188 165.203125 C 130.996094 165.203125 125.945312 163.660156 125.945312 163.660156 C 125.945312 163.660156 126.082031 160.011719 125.523438 158.46875 C 124.960938 156.925781 122.296875 152.574219 123.558594 151.871094 C 124.820312 151.171875 125.804688 151.734375 126.503906 152.433594 C 127.207031 153.136719 128.46875 155.242188 131.136719 155.800781 C 133.800781 156.363281 135.90625 156.644531 135.90625 156.644531 C 135.90625 156.644531 136.46875 156.925781 136.46875 158.046875 C 136.46875 159.167969 135.484375 160.292969 136.886719 161.695312 C 138.292969 163.097656 139.414062 164.359375 140.957031 163.660156 C 142.5 162.957031 142.78125 162.117188 142.78125 162.117188 C 142.78125 162.117188 141.660156 162.816406 139.835938 162.398438 C 138.011719 161.976562 138.710938 158.46875 138.851562 157.765625 C 138.992188 157.066406 140.394531 156.363281 141.238281 157.066406 C 142.082031 157.765625 143.203125 159.589844 142.5 160.292969 C 141.800781 160.992188 144.464844 158.75 144.324219 157.765625 C 144.183594 156.785156 143.765625 156.082031 143.765625 156.082031 C 143.765625 156.082031 145.589844 156.082031 146.710938 155.941406 C 147.832031 155.800781 148.675781 155.242188 148.675781 156.082031 C 148.675781 156.925781 148.113281 160.714844 149.375 158.328125 C 150.640625 155.941406 151.199219 155.382812 149.9375 154.117188 Z M 149.9375 154.117188 " fill-opacity="1" fill-rule="evenodd"/></g><g clip-path="url(#cc8c4e116c)"><path stroke-linecap="butt" transform="matrix(-0.316916, 0, 0, 0.316916, 220.765596, 66.482163)" fill="none" stroke-linejoin="miter" d="M 223.491433 276.524126 C 226.141481 274.317806 230.135042 271.211703 235.447465 271.655432 C 240.759888 272.099161 252.71592 272.986619 257.140885 272.099161 C 261.565849 271.211703 265.103356 272.54289 266.434543 269.005384 C 267.76573 265.455551 268.209459 253.943248 271.746965 249.518283 C 275.296798 245.093319 285.034185 240.224625 286.365372 235.799661 C 287.684233 231.374696 288.127962 229.59978 286.365372 225.174815 C 284.590456 220.749851 280.60922 216.756289 274.853069 214.106241 C 269.096917 211.443867 263.784494 209.668951 263.784494 209.668951 C 263.784494 209.668951 252.272191 220.306122 251.828462 222.95617 C 251.384733 225.618544 252.71592 228.268593 250.053546 229.59978 C 247.403497 230.930967 242.966207 226.937406 242.091075 219.862393 C 241.203617 212.775054 244.297394 204.356528 243.853665 199.487834 C 243.409936 194.619141 240.316159 190.194176 242.966207 185.325483 C 245.628581 180.456789 251.828462 172.925721 256.697156 169.388215 C 261.565849 165.838382 269.984375 165.394653 271.303236 160.969689 C 272.634424 156.544724 262.897036 139.719998 262.897036 135.738763 C 262.897036 131.745201 264.228223 124.226459 261.12212 118.026579 C 258.028343 111.826698 254.47851 98.539478 241.203617 90.133278 C 227.916397 81.714752 218.622739 78.177246 216.404094 71.977365 C 214.185449 65.777484 215.960365 65.777484 218.622739 64.014894 C 221.272787 62.239978 211.5354 52.058862 208.441623 42.309149 C 205.335519 32.571761 200.023097 13.096987 202.241742 11.322071 C 204.448061 9.547155 211.091671 11.322071 212.422858 14.859577 C 213.754045 18.40941 219.066468 40.102829 219.066468 40.102829 C 219.066468 40.102829 217.735281 23.721832 219.9416 18.853139 C 222.160245 13.984445 224.82262 9.103426 227.472668 10.434613 C 230.135042 11.7658 228.803855 40.546558 228.803855 40.546558 C 228.803855 40.546558 231.453904 33.902948 233.22882 29.921713 C 235.003736 25.928152 236.334923 22.390645 238.541242 24.60929 C 240.759888 26.81561 238.984972 48.0653 238.984972 48.0653 C 238.984972 48.0653 242.522478 42.752878 245.184852 41.434016 C 247.834901 40.102829 249.166088 39.215371 250.941004 42.309149 C 252.71592 45.415252 252.272191 49.396487 252.272191 49.396487 C 252.272191 49.396487 253.591052 44.971523 256.697156 44.971523 C 259.790933 44.971523 263.784494 46.30271 262.453307 49.840216 C 261.12212 53.377723 274.40934 50.283945 273.521882 56.483826 C 272.634424 62.683707 273.521882 68.439859 277.059388 68.439859 C 280.60922 68.439859 282.81554 73.308552 289.902879 71.533636 C 294.327843 74.19601 287.684233 90.577007 290.790337 88.358362 C 293.884114 86.152043 300.971453 84.377126 303.633827 89.24582 C 306.283876 94.114514 300.083995 99.870665 303.633827 104.29563 C 307.171334 108.73292 303.633827 112.714156 308.94625 116.251662 C 314.258672 119.801495 314.702401 117.13912 316.021263 125.113917 C 317.35245 133.076388 317.35245 136.626221 319.571095 139.719998 C 321.777414 142.813776 324.439789 145.032421 323.99606 151.676031 C 323.552331 158.31964 319.571095 164.519521 324.883518 163.632063 C 330.19594 162.744605 332.40226 157.432182 336.395821 155.213537 C 340.377057 153.007218 341.264515 152.563489 346.576937 148.569927 C 351.88936 144.588692 352.776818 139.276269 355.870596 137.945082 C 358.976699 136.626221 361.626747 137.057624 366.051712 135.295034 C 370.489002 133.520117 374.913967 129.538882 377.120286 127.763966 C 379.338931 125.98905 379.338931 125.113917 383.320167 121.564085 C 387.313728 118.026579 391.294964 115.807933 393.945012 110.051782 C 396.607386 104.29563 396.163657 103.851901 399.257435 95.445701 C 402.363538 87.027175 401.47608 84.377126 403.250996 80.827294 C 405.013586 77.289788 405.013586 74.19601 408.11969 71.089907 C 411.213467 67.99613 413.875841 64.446297 414.31957 67.5524 C 414.7633 70.646178 414.7633 75.071143 414.7633 77.733517 C 414.7633 80.383565 418.744535 73.752281 422.282042 67.108671 C 425.831874 60.465062 424.056958 59.577604 425.388145 53.821452 C 426.719332 48.0653 425.388145 44.084065 425.831874 37.440455 C 426.275603 30.796845 427.150735 30.353116 427.594464 20.615729 C 428.038193 10.878342 428.827045 9.239009 428.827045 2.151671 C 428.827045 -4.923342 428.568203 -7.795255 428.481922 -13.033723 C 430.022648 -17.051936 431.748261 -18.284517 432.906887 -17.902417 C 434.349006 -17.520317 436.284158 -17.495665 437.442784 -12.146265 C 438.317916 -6.390113 439.119093 -2.100733 439.994226 8.659697 C 439.106768 19.284542 438.663039 28.590526 440.437955 31.240574 C 442.212871 33.902948 443.544058 33.459219 444.862919 30.353116 C 446.194106 27.259339 446.194106 25.928152 447.969023 20.615729 C 449.731613 15.303306 449.620681 11.827429 450.53279 4.407293 C 450.089061 -6.661281 450.619071 -11.702536 451.0628 -20.121062 C 451.506529 -28.527262 451.013497 -28.773778 451.950258 -33.839685 C 452.751435 -38.634423 453.873084 -39.780723 457.70641 -39.152107 C 459.925055 -36.502059 460.356458 -29.858449 461.243916 -24.102297 C 462.131374 -18.346146 462.131374 -18.789875 462.575103 -8.165029 C 463.018832 2.459816 462.636732 6.699893 461.749274 10.249726 C 461.539736 14.193984 460.750884 18.11359 461.243916 19.728271 C 463.90629 17.965681 463.90629 14.859577 466.556339 8.659697 C 469.218713 2.459816 471.437358 -2.852607 472.312491 -9.939946 C 473.199949 -17.014959 475.566504 -19.615704 477.082578 -27.405614 C 480.620084 -34.936681 481.39661 -36.760901 483.824794 -36.945788 C 486.400888 -35.096917 487.621142 -33.432933 487.374626 -27.639804 C 486.043439 -21.439923 486.043439 -18.346146 483.824794 -12.146265 C 481.618475 -5.946384 482.062204 -3.296336 478.9561 3.347274 C 477.082578 9.17738 476.848387 11.161835 475.862323 13.084661 C 480.287287 13.52839 480.225658 11.778126 482.937336 8.659697 C 487.423929 0.142564 485.722968 1.929806 487.374626 -0.633962 C 489.827462 -5.773823 491.935175 -7.671997 494.00591 -6.833842 C 496.224555 -3.296336 497.112013 -2.408878 495.337097 1.572358 C 493.574507 5.565919 494.893368 2.903545 492.24332 8.659697 C 489.580946 14.415848 486.930897 16.634493 490.468404 16.190764 C 494.00591 15.747035 494.449639 16.190764 496.668284 12.640932 C 498.88693 9.103426 496.668284 8.659697 501.536978 6.453377 C 506.405672 4.234732 509.511775 0.253496 510.830636 3.347274 C 512.161823 6.453377 512.605552 6.009648 509.511775 10.434613 C 506.405672 14.859577 503.311894 16.190764 504.643081 18.397084 C 505.961943 20.615729 509.511775 21.059458 512.161823 21.059458 C 514.824198 21.059458 515.267927 21.503187 513.936739 25.928152 C 512.605552 30.353116 512.161823 30.353116 511.718094 32.571761 C 511.274365 34.778081 513.49301 36.552997 513.49301 36.552997 C 513.49301 36.552997 517.474246 33.902948 514.380469 40.534232 C 511.274365 47.177842 509.511775 45.415252 507.736859 48.509029 C 505.961943 51.602807 504.199352 54.70891 506.849401 54.70891 C 509.511775 54.70891 512.161823 54.265181 511.718094 56.483826 C 511.274365 58.690146 507.29313 60.908791 509.511775 62.239978 C 511.718094 63.558839 513.49301 61.796249 515.267927 63.558839 C 517.030517 65.333755 515.267927 68.427533 515.267927 70.646178 C 515.267927 72.864823 514.824198 74.627413 515.711656 76.846059 C 516.586788 79.064704 518.361704 81.271023 517.030517 83.489668 C 515.711656 85.695988 517.474246 86.139717 513.936739 88.358362 C 510.399233 90.564681 508.180588 90.133278 508.180588 92.339598 C 508.180588 94.558243 507.736859 94.114514 509.955504 95.88943 C 512.161823 97.65202 514.824198 96.320833 513.049281 100.314394 C 511.274365 104.29563 511.718094 103.851901 510.830636 107.389407 C 509.955504 110.93924 511.274365 109.164324 507.29313 117.582849 C 503.311894 125.98905 499.330659 132.18893 495.337097 134.407576 C 491.355862 136.613895 492.24332 141.482588 494.893368 142.370047 C 497.555742 143.257505 497.999472 147.23874 495.337097 152.994892 C 492.687049 158.751044 489.580946 166.282111 488.693488 170.263347 C 487.818355 174.244582 486.930897 174.688311 482.505933 179.569331 C 478.068642 184.438025 474.531136 188.862989 470.5499 190.194176 C 466.556339 191.513038 466.11261 195.950328 463.462561 198.156647 C 460.800187 200.375292 459.925055 201.70648 454.168903 201.70648 C 448.412752 201.70648 448.412752 200.375292 442.6566 202.150209 C 436.900448 203.912799 434.238074 205.687715 433.794345 208.337764 C 433.350616 211.000138 431.588026 212.331325 428.038193 211.443867 C 424.500687 210.556409 427.150735 213.218783 422.725771 214.981373 C 418.300806 216.756289 419.631993 218.974935 414.31957 218.531206 C 409.007148 218.087477 406.344774 214.093915 405.013586 218.531206 C 403.694725 222.95617 403.250996 226.493677 397.494844 222.512441 C 391.738693 218.531206 388.63259 207.894034 385.538812 218.974935 C 382.432709 230.043509 382.432709 232.693557 385.982541 235.799661 C 389.520048 238.893438 390.407506 241.555812 398.382303 244.64959 C 406.344774 247.743367 406.344774 251.2932 412.100925 253.499519 C 417.857077 255.718164 418.300806 256.605622 427.150735 261.030587 C 436.01299 265.455551 438.219309 266.786738 443.544058 269.880516 C 448.856481 272.986619 450.175342 276.080397 451.506529 279.1865 C 452.837716 282.280277 458.593868 285.83011 456.375223 290.255074 C 454.168903 294.680039 449.731613 292.017665 449.731613 294.23631 C 449.731613 296.454955 450.619071 298.217545 448.856481 302.654836 C 447.081564 307.0798 447.525293 308.842391 441.325413 310.617307 C 435.125532 312.392223 431.588026 313.279681 428.481922 311.948494 C 425.388145 310.617307 424.500687 315.929729 421.394583 314.598542 C 418.300806 313.279681 416.969619 309.28612 414.7633 311.504765 C 412.544654 313.72341 416.52589 315.042271 411.213467 316.373458 C 405.901045 317.704646 405.457316 314.167139 405.013586 317.260917 C 404.569857 320.354694 406.344774 323.460797 400.588622 320.354694 C 394.83247 317.260917 396.607386 311.061036 392.182422 315.486 C 387.757457 319.923291 389.963777 325.235713 382.001306 320.798423 C 374.026509 316.373458 376.688883 315.929729 370.489002 316.373458 C 364.289121 316.817187 364.289121 317.260917 362.070476 312.392223 C 359.851831 307.523529 364.289121 308.842391 354.539408 308.410987 C 344.802021 307.967258 349.670715 314.167139 343.470834 305.748613 C 337.270953 297.342413 335.952092 288.923887 333.289718 298.217545 C 330.639669 307.523529 333.289718 309.729849 329.308482 312.392223 C 325.327247 315.042271 304.952688 314.167139 304.952688 314.167139 C 304.952688 314.167139 304.508959 324.348255 302.746369 326.110846 C 300.971453 327.885762 296.546488 324.348255 292.565253 327.885762 C 288.571691 331.423268 291.234066 333.641913 287.684233 336.735691 C 284.146727 339.841794 277.059388 340.285523 277.059388 340.285523 C 277.059388 340.285523 281.928082 336.304288 283.259269 332.754455 C 284.590456 329.216949 286.365372 323.017068 286.365372 323.017068 C 286.365372 323.017068 279.278033 325.667117 276.184256 326.110846 C 273.078153 326.554575 268.209459 325.667117 268.209459 325.667117 L 269.540646 335.860559 C 269.540646 335.860559 261.12212 335.860559 261.12212 332.310726 C 261.12212 328.77322 263.784494 319.035833 265.990814 317.704646 C 268.209459 316.373458 271.303236 316.817187 271.303236 316.817187 C 271.303236 316.817187 270.428104 312.392223 272.634424 311.504765 C 274.853069 310.617307 276.184256 311.504765 279.721762 311.504765 C 283.259269 311.504765 299.196537 306.636071 299.196537 306.636071 C 299.196537 306.636071 298.765134 295.123768 300.527724 290.255074 C 302.30264 285.386381 310.70884 271.655432 306.727605 269.436787 C 302.746369 267.230467 299.640266 269.005384 297.433946 271.211703 C 295.215301 273.430348 291.234066 280.073958 282.81554 281.836548 C 274.40934 283.611464 267.76573 284.498923 267.76573 284.498923 C 267.76573 284.498923 265.990814 285.386381 265.990814 288.923887 C 265.990814 292.461394 269.096917 296.011226 264.671952 300.43619 C 260.234662 304.861155 256.697156 308.842391 251.828462 306.636071 C 246.959768 304.417426 246.07231 301.767378 246.07231 301.767378 C 246.07231 301.767378 249.609817 303.973697 255.365968 302.654836 C 261.12212 301.323649 258.915801 290.255074 258.472072 288.036429 C 258.028343 285.83011 253.603378 283.611464 250.941004 285.83011 C 248.27863 288.036429 244.741123 293.792581 246.959768 296.011226 C 249.166088 298.217545 240.759888 291.142532 241.203617 288.036429 C 241.647346 284.942652 242.966207 282.724006 242.966207 282.724006 C 242.966207 282.724006 237.210055 282.724006 233.672549 282.280277 C 230.135042 281.836548 227.472668 280.073958 227.472668 282.724006 C 227.472668 285.386381 229.247584 297.342413 225.266349 289.811345 C 221.272787 282.280277 219.510197 280.517687 223.491433 276.524126 Z M 223.491433 276.524126 " stroke="#000000" stroke-width="1.25" stroke-opacity="1" stroke-miterlimit="4"/></g><path stroke-linecap="butt" transform="matrix(0.75, 0, 0, 0.75, 174.526942, 106.938751)" fill="none" stroke-linejoin="miter" d="M 89.010958 177.326468 C 67.958874 177.326468 51.724498 171.982718 40.302622 161.295217 C 28.880746 150.607716 23.167204 133.513965 23.167204 110.013964 C 23.167204 65.118127 45.005747 42.665001 88.682833 42.665001 C 99.260959 42.665001 109.094293 43.946251 118.177627 46.498335 C 127.260961 49.055626 134.031795 51.899377 138.490128 55.024377 L 138.490128 96.800421 L 98.391167 96.800421 L 98.391167 84.763962 C 98.391167 80.55042 97.438042 77.435837 95.537 75.42542 C 93.63075 73.409795 90.792209 72.404586 87.010958 72.404586 C 83.229708 72.404586 80.391166 73.409795 78.484916 75.42542 C 76.578666 77.435837 75.630749 80.55042 75.630749 84.763962 L 75.630749 135.227507 C 75.630749 139.467091 76.578666 142.597299 78.484916 144.607716 C 80.391166 146.592091 83.229708 147.586883 87.010958 147.586883 C 90.792209 147.586883 93.63075 146.592091 95.537 144.607716 C 97.438042 142.597299 98.391167 139.467091 98.391167 135.227507 L 98.391167 121.680631 L 138.490128 121.680631 L 138.490128 164.967092 C 133.92242 168.092093 127.151586 170.935843 118.177627 173.493135 C 109.203668 176.045218 99.479709 177.326468 89.010958 177.326468 Z M 89.010958 177.326468 " stroke="#ffffff" stroke-width="12.53205" stroke-opacity="1" stroke-miterlimit="4"/><g fill="#242254" fill-opacity="1"><g transform="translate(190.159753, 238.188743)"><g><path d="M 51.125 1.75 C 35.332031 1.75 23.15625 -2.257812 14.59375 -10.28125 C 6.03125 -18.300781 1.75 -31.125 1.75 -48.75 C 1.75 -82.414062 18.125 -99.25 50.875 -99.25 C 58.8125 -99.25 66.179688 -98.285156 72.984375 -96.359375 C 79.796875 -94.441406 84.875 -92.3125 88.21875 -89.96875 L 88.21875 -58.640625 L 58.140625 -58.640625 L 58.140625 -67.671875 C 58.140625 -70.847656 57.429688 -73.1875 56.015625 -74.6875 C 54.597656 -76.1875 52.46875 -76.9375 49.625 -76.9375 C 46.78125 -76.9375 44.648438 -76.1875 43.234375 -74.6875 C 41.816406 -73.1875 41.109375 -70.847656 41.109375 -67.671875 L 41.109375 -29.828125 C 41.109375 -26.648438 41.816406 -24.304688 43.234375 -22.796875 C 44.648438 -21.296875 46.78125 -20.546875 49.625 -20.546875 C 52.46875 -20.546875 54.597656 -21.296875 56.015625 -22.796875 C 57.429688 -24.304688 58.140625 -26.648438 58.140625 -29.828125 L 58.140625 -39.96875 L 88.21875 -39.96875 L 88.21875 -7.515625 C 84.789062 -5.179688 79.710938 -3.050781 72.984375 -1.125 C 66.265625 0.789062 58.976562 1.75 51.125 1.75 Z M 51.125 1.75 "/></g></g></g></svg>